<?xml version="1.0" standalone="no"?>
<!DOCTYPE svg PUBLIC "-//W3C//DTD SVG 20010904//EN"
 "http://www.w3.org/TR/2001/REC-SVG-20010904/DTD/svg10.dtd">
<svg version="1.0" xmlns="http://www.w3.org/2000/svg"
 width="1000.000000pt" height="1000.000000pt" viewBox="0 0 1000.000000 1000.000000"
 preserveAspectRatio="xMidYMid meet">
<metadata>
Created by potrace 1.11, written by Peter Selinger 2001-2013
</metadata>
<g transform="translate(0.000000,1000.000000) scale(0.100000,-0.100000)"
fill="#000000" stroke="none">
<path d="M0 5000 l0 -5000 5000 0 5000 0 0 5000 0 5000 -5000 0 -5000 0 0
-5000z m7398 2213 l2 -193 258 -2 257 -3 0 -150 0 -150 -257 -3 -258 -2 0
-135 0 -135 443 -2 442 -3 0 -150 0 -150 -1005 -5 c-583 -3 -1010 -1 -1018 4
-9 7 -12 45 -10 155 l3 146 388 3 387 2 0 135 0 135 -267 2 -268 3 0 150 0
150 268 3 267 2 0 188 c0 104 3 192 7 196 4 3 86 5 182 4 l176 -3 3 -192z
m-4200 80 l3 -103 572 -2 572 -3 0 -335 0 -335 -180 0 -180 0 -3 193 -2 192
-990 0 -990 0 -2 -192 -3 -193 -180 0 -180 0 0 335 0 335 598 3 597 2 0 98 c0
54 3 102 7 106 4 3 86 5 182 4 l176 -3 3 -102z m2640 -400 l2 -363 164 0 c127
0 166 -3 175 -14 8 -9 11 -57 9 -147 l-3 -134 -172 -3 -173 -2 0 -253 0 -253
133 18 c72 10 150 17 172 16 l40 -3 3 -153 c3 -180 20 -160 -168 -192 -69 -11
-137 -23 -152 -26 l-28 -6 -2 -436 -3 -437 -170 0 -170 0 -3 403 -2 404 -28
-6 c-124 -25 -456 -77 -473 -74 -23 3 -23 4 -22 173 0 134 3 171 14 177 8 4
115 21 239 38 124 17 235 33 248 35 l22 5 0 285 0 285 -340 0 c-305 0 -341 2
-347 16 -6 16 131 613 149 647 8 16 25 17 176 15 l167 -3 3 -30 c2 -16 -13
-99 -33 -183 -19 -84 -35 -155 -35 -158 0 -2 59 -4 130 -4 l130 0 0 358 c0
197 3 362 7 366 4 3 81 5 172 4 l166 -3 3 -362z m-2332 -99 c81 -75 104 -102
104 -122 0 -21 -37 -64 -177 -204 -117 -117 -172 -179 -162 -182 7 -3 67 -13
132 -24 l117 -19 0 138 c0 76 4 140 9 143 5 3 74 9 155 12 111 6 149 4 161 -6
12 -10 15 -41 15 -175 l0 -163 28 -6 c15 -3 117 -19 227 -36 110 -17 205 -36
210 -43 7 -8 9 -68 5 -167 l-5 -155 -30 -3 c-24 -2 -695 103 -782 123 -16 4
-20 1 -17 -13 3 -9 -2 -63 -9 -119 l-13 -103 300 -2 301 -3 0 -345 0 -345
-347 -3 -348 -2 -5 -23 c-2 -12 -9 -60 -15 -107 -6 -47 -13 -102 -16 -122 l-6
-38 212 0 212 0 -8 63 c-5 34 -8 80 -9 102 l0 40 160 0 160 0 42 -185 c23
-102 41 -203 40 -225 l-2 -40 -590 0 -590 0 -3 95 c-2 55 6 163 18 256 11 88
20 166 20 172 0 9 -80 12 -292 14 l-293 3 -5 231 -5 232 -270 -278 c-185 -191
-277 -279 -292 -279 -29 -1 -227 209 -231 246 -3 23 58 87 454 484 l457 457
-34 6 c-19 4 -91 17 -161 30 l-128 23 -2 -166 -3 -166 -175 0 -175 0 -3 343
c-2 303 0 343 13 349 14 5 423 -50 467 -63 16 -5 18 9 20 153 l3 158 165 0
165 0 3 -182 c3 -202 -3 -187 83 -198 l54 -6 270 270 c203 204 276 271 294
271 16 0 56 -30 127 -96z m4232 -836 l3 -118 222 -2 222 -3 0 -145 0 -145
-222 -3 -223 -2 -2 -548 -3 -547 -188 0 -188 0 0 547 -1 548 -521 2 -522 3 0
145 0 145 518 3 517 2 0 108 c0 72 4 112 12 120 9 9 61 12 193 10 l180 -3 3
-117z m-761 -793 c24 -137 42 -266 40 -285 l-2 -35 -174 -3 c-96 -1 -178 1
-182 5 -12 12 -83 537 -76 556 6 16 24 17 179 15 l172 -3 43 -250z m-1831
-1242 c54 -87 164 -265 246 -395 81 -131 148 -240 148 -243 0 -3 -72 -5 -160
-5 l-160 0 0 -285 0 -285 430 0 430 0 0 432 c0 387 2 433 17 450 14 16 34 18
168 18 118 0 155 -3 164 -14 9 -10 11 -178 11 -627 0 -553 -2 -615 -17 -631
-15 -17 -55 -18 -768 -18 -741 0 -752 0 -770 20 -17 19 -18 47 -16 480 l3 460
-167 0 c-136 0 -166 3 -162 13 3 8 107 178 232 378 194 312 258 409 271 409 1
0 46 -71 100 -157z m2916 -287 c16 -12 18 -57 18 -647 l0 -635 -29 -17 c-27
-16 -78 -17 -608 -17 l-578 1 -3 -232 c-1 -151 -6 -237 -13 -246 -9 -10 -49
-13 -162 -13 -126 0 -153 3 -169 17 -17 15 -18 56 -18 890 0 678 3 878 12 893
13 20 25 20 773 20 613 -1 763 -3 777 -14z"/>
<path d="M2795 5830 l-160 -160 238 0 c181 0 239 3 241 13 3 6 10 59 18 117
l13 105 155 4 155 3 -230 39 c-126 21 -239 39 -250 39 -13 0 -78 -58 -180
-160z"/>
<path d="M2770 5316 l0 -85 133 6 c72 3 134 7 136 9 4 3 30 123 31 142 0 9
-36 12 -150 12 l-150 0 0 -84z"/>
<path d="M3439 5398 c-1 -2 -7 -40 -13 -85 l-12 -81 166 5 c91 3 166 6 166 7
1 0 4 36 8 79 l7 77 -161 0 c-88 0 -161 -1 -161 -2z"/>
<path d="M6860 2990 l0 -280 430 0 430 0 0 280 0 280 -430 0 -430 0 0 -280z"/>
</g>
</svg>
